<?xml version="1.0" standalone="no"?>
<!DOCTYPE svg PUBLIC "-//W3C//DTD SVG 20010904//EN"
 "http://www.w3.org/TR/2001/REC-SVG-20010904/DTD/svg10.dtd">
<svg version="1.0" xmlns="http://www.w3.org/2000/svg"
 width="500.000000pt" height="500.000000pt" viewBox="0 0 500.000000 500.000000"
 preserveAspectRatio="xMidYMid meet">
<metadata>
Created by potrace 1.14, written by Peter Selinger 2001-2017
</metadata>
<g transform="translate(0.000000,500.000000) scale(0.100000,-0.100000)"
fill="#000000" stroke="none">
<path d="M1270 3738 c0 -31 1 -31 96 -28 46 1 52 -1 55 -22 3 -13 4 -399 4
-858 l0 -835 -77 -3 -78 -3 0 -29 0 -29 718 2 717 2 3 48 c3 41 6 48 20 42 9
-3 91 -29 182 -57 355 -109 452 -186 452 -361 1 -147 -84 -241 -247 -272 -163
-31 -330 32 -481 182 -89 89 -209 251 -251 337 -22 47 -69 52 -65 6 1 -7 12
-270 17 -410 2 -58 5 -122 5 -142 0 -31 4 -38 20 -38 12 0 26 12 35 30 9 17
26 35 39 39 24 10 39 7 271 -39 139 -28 359 -35 460 -15 207 41 367 174 439
367 32 85 40 140 39 263 -1 80 -7 117 -27 178 -33 99 -59 139 -136 210 -92 86
-205 137 -440 202 -345 95 -455 180 -445 343 6 100 65 180 164 226 37 16 67
20 156 21 105 0 113 -2 176 -33 116 -58 238 -192 364 -399 43 -71 79 -86 77
-33 -17 518 -15 486 -25 496 -4 4 -21 -5 -37 -21 -37 -36 -61 -35 -220 5 -257
65 -447 59 -615 -21 -74 -35 -174 -122 -217 -188 l-28 -45 0 65 c-1 35 -1 121
-1 192 0 116 -1 127 -18 127 -14 0 -25 -19 -46 -77 -47 -131 -126 -223 -216
-252 -39 -13 -149 -18 -165 -9 -6 4 -9 156 -9 405 l0 398 90 0 c279 0 409 -90
547 -377 35 -72 46 -87 62 -84 18 3 21 10 20 47 -2 60 -16 337 -19 374 -1 17
-3 46 -4 65 l-1 35 -680 0 -680 0 0 -27z m861 -936 c59 -26 111 -80 147 -155
30 -61 39 -92 62 -212 18 -97 66 -193 123 -245 l21 -21 -29 -25 c-69 -60 -179
-121 -235 -130 -14 -3 -39 -9 -56 -13 -16 -5 -75 -9 -130 -10 l-99 -2 0 422 0
422 76 -6 c44 -3 95 -13 120 -25z"/>
</g>
</svg>
