<svg xmlns="http://www.w3.org/2000/svg" xmlns:xlink="http://www.w3.org/1999/xlink" width="500" zoomAndPan="magnify" viewBox="0 0 375 374.999991" height="500" preserveAspectRatio="xMidYMid meet" version="1.0"><defs><clipPath id="aea522091c"><path d="M 168.75 169 L 206.25 169 L 206.25 206.25 L 168.75 206.25 Z M 168.75 169 " clip-rule="nonzero"/></clipPath></defs><g clip-path="url(#aea522091c)"><path fill="#8627a2" d="M 191.40625 206.113281 C 191.230469 206.113281 191.058594 206.054688 190.917969 205.941406 C 190.734375 205.792969 190.625 205.570312 190.625 205.332031 L 190.625 199.519531 C 190.625 198.113281 190.445312 197.117188 190.058594 196.386719 C 189.945312 196.171875 189.9375 195.917969 190.039062 195.695312 C 190.136719 195.476562 190.335938 195.316406 190.570312 195.261719 C 195.203125 194.191406 198.4375 190.804688 198.4375 187.019531 C 198.4375 185.144531 197.667969 183.355469 196.210938 181.84375 C 195.984375 181.609375 195.929688 181.265625 196.0625 180.972656 C 196.644531 179.71875 196.523438 178.011719 195.832031 176.988281 C 194.921875 177.34375 193.738281 178.089844 192.96875 179.003906 C 192.761719 179.253906 192.414062 179.347656 192.105469 179.234375 C 189.175781 178.15625 185.828125 178.15625 182.898438 179.234375 C 182.589844 179.34375 182.242188 179.253906 182.03125 179.003906 C 181.261719 178.09375 180.078125 177.347656 179.167969 176.992188 C 178.476562 178.015625 178.355469 179.71875 178.9375 180.972656 C 179.070312 181.265625 179.015625 181.609375 178.789062 181.84375 C 177.332031 183.355469 176.5625 185.144531 176.5625 187.019531 C 176.5625 190.625 179.472656 193.871094 183.804688 195.097656 C 184.144531 195.195312 184.375 195.5 184.375 195.851562 L 184.375 196.394531 C 184.375 197.375 183.984375 197.925781 183.652344 198.21875 C 182.945312 198.835938 182.035156 198.742188 181.933594 198.734375 C 181.929688 198.734375 181.921875 198.734375 181.917969 198.734375 C 180.632812 198.734375 179.664062 198.015625 178.726562 197.320312 C 178.257812 196.972656 177.78125 196.617188 177.226562 196.324219 C 177.34375 196.488281 177.464844 196.65625 177.585938 196.820312 C 178.757812 198.453125 180.082031 200.300781 182.03125 200.300781 L 183.59375 200.300781 C 184.027344 200.300781 184.375 200.648438 184.375 201.082031 L 184.375 205.332031 C 184.375 205.570312 184.269531 205.792969 184.085938 205.941406 C 183.898438 206.085938 183.65625 206.140625 183.425781 206.09375 C 174.921875 204.207031 168.75 196.515625 168.75 187.800781 C 168.75 177.460938 177.160156 169.050781 187.5 169.050781 C 197.839844 169.050781 206.25 177.460938 206.25 187.800781 C 206.25 196.511719 200.078125 204.207031 191.574219 206.09375 C 191.519531 206.105469 191.460938 206.113281 191.40625 206.113281 Z M 191.808594 196.546875 C 192.066406 197.355469 192.1875 198.324219 192.1875 199.519531 L 192.1875 204.328125 C 199.484375 202.257812 204.6875 195.457031 204.6875 187.800781 C 204.6875 178.324219 196.976562 170.613281 187.5 170.613281 C 178.023438 170.613281 170.3125 178.324219 170.3125 187.800781 C 170.3125 195.457031 175.515625 202.257812 182.8125 204.328125 L 182.8125 201.863281 L 182.03125 201.863281 C 179.28125 201.863281 177.636719 199.574219 176.3125 197.734375 C 175.566406 196.691406 174.789062 195.613281 174.21875 195.613281 C 173.789062 195.613281 173.4375 195.261719 173.4375 194.832031 C 173.4375 194.398438 173.789062 194.050781 174.21875 194.050781 C 176.9375 194.050781 178.445312 195.167969 179.65625 196.066406 C 180.492188 196.6875 181.152344 197.175781 182.03125 197.175781 C 182.117188 197.179688 182.441406 197.203125 182.625 197.039062 C 182.773438 196.90625 182.808594 196.640625 182.8125 196.429688 C 178.117188 194.886719 175 191.164062 175 187.019531 C 175 184.890625 175.800781 182.863281 177.320312 181.136719 C 176.648438 179.195312 177.0625 176.820312 178.351562 175.53125 C 178.546875 175.332031 178.832031 175.253906 179.105469 175.328125 C 180.148438 175.601562 181.699219 176.414062 182.855469 177.59375 C 185.832031 176.625 189.164062 176.625 192.140625 177.59375 C 193.296875 176.414062 194.847656 175.601562 195.890625 175.328125 C 196.160156 175.253906 196.445312 175.332031 196.640625 175.53125 C 197.933594 176.820312 198.347656 179.195312 197.675781 181.132812 C 199.199219 182.863281 200 184.890625 200 187.019531 C 200 191.28125 196.675781 195.097656 191.808594 196.546875 Z M 191.808594 196.546875 " fill-opacity="1" fill-rule="nonzero"/></g></svg>