<svg xmlns="http://www.w3.org/2000/svg" xmlns:xlink="http://www.w3.org/1999/xlink" width="500" zoomAndPan="magnify" viewBox="0 0 375 374.999991" height="500" preserveAspectRatio="xMidYMid meet" version="1.0"><defs><clipPath id="267f270232"><path d="M 168.75 160.527344 L 206.25 160.527344 L 206.25 198.027344 L 168.75 198.027344 Z M 168.75 160.527344 " clip-rule="nonzero"/></clipPath></defs><path fill="#8627a2" d="M 195.777344 181.582031 L 195.777344 187.269531 L 192.253906 187.269531 L 192.253906 181.582031 C 192.253906 180.761719 192.253906 178.769531 190.453125 178.769531 C 188.398438 178.769531 188.289062 180.839844 188.289062 180.839844 L 188.289062 187.285156 L 184.75 187.285156 L 184.75 175.894531 L 188.289062 175.894531 L 188.289062 177.460938 C 189.128906 175.753906 190.832031 175.628906 191.953125 175.628906 C 193.234375 175.628906 194.371094 176.117188 195.035156 177.222656 C 195.601562 178.15625 195.777344 179.480469 195.777344 181.582031 Z M 195.777344 181.582031 " fill-opacity="1" fill-rule="nonzero"/><path fill="#8627a2" d="M 183.328125 172.308594 C 183.328125 172.582031 183.277344 172.84375 183.171875 173.097656 C 183.070312 173.347656 182.921875 173.570312 182.726562 173.761719 C 182.535156 173.953125 182.3125 174.101562 182.0625 174.207031 C 181.8125 174.3125 181.546875 174.363281 181.277344 174.363281 C 181.003906 174.363281 180.742188 174.3125 180.492188 174.207031 C 180.238281 174.101562 180.015625 173.953125 179.824219 173.761719 C 179.632812 173.570312 179.484375 173.347656 179.378906 173.097656 C 179.273438 172.84375 179.222656 172.582031 179.222656 172.308594 C 179.222656 172.039062 179.273438 171.777344 179.378906 171.523438 C 179.484375 171.273438 179.632812 171.050781 179.824219 170.859375 C 180.015625 170.664062 180.238281 170.515625 180.492188 170.414062 C 180.742188 170.308594 181.003906 170.257812 181.277344 170.257812 C 181.546875 170.257812 181.8125 170.308594 182.0625 170.414062 C 182.3125 170.515625 182.535156 170.664062 182.726562 170.859375 C 182.921875 171.050781 183.070312 171.273438 183.171875 171.523438 C 183.277344 171.777344 183.328125 172.039062 183.328125 172.308594 Z M 183.328125 172.308594 " fill-opacity="1" fill-rule="nonzero"/><path fill="#8627a2" d="M 179.523438 175.894531 L 183.046875 175.894531 L 183.046875 187.285156 L 179.523438 187.285156 Z M 179.523438 175.894531 " fill-opacity="1" fill-rule="nonzero"/><g clip-path="url(#267f270232)"><path fill="#8627a2" d="M 187.5 198.027344 C 177.167969 198.027344 168.75 189.621094 168.75 179.277344 C 168.75 168.929688 177.167969 160.527344 187.5 160.527344 C 197.832031 160.527344 206.25 168.945312 206.25 179.277344 C 206.25 189.605469 197.847656 198.027344 187.5 198.027344 Z M 187.5 161.554688 C 177.722656 161.554688 169.777344 169.5 169.777344 179.277344 C 169.777344 189.054688 177.722656 197 187.5 197 C 197.277344 197 205.222656 189.054688 205.222656 179.277344 C 205.222656 169.5 197.277344 161.554688 187.5 161.554688 Z M 187.5 161.554688 " fill-opacity="1" fill-rule="nonzero"/></g></svg>