<svg xmlns="http://www.w3.org/2000/svg" xmlns:xlink="http://www.w3.org/1999/xlink" width="500" zoomAndPan="magnify" viewBox="0 0 375 374.999991" height="500" preserveAspectRatio="xMidYMid meet" version="1.0"><defs><g/></defs><g fill="#000000" fill-opacity="1"><g transform="translate(164.850418, 294.885069)"><g><path d="M 63.8125 -2.15625 C 70.351562 -2.15625 76.144531 -3.921875 81.1875 -7.453125 C 86.226562 -10.992188 88.75 -16.328125 88.75 -23.453125 C 88.75 -30.585938 86.03125 -36.050781 80.59375 -39.84375 C 75.164062 -43.644531 67.441406 -46.953125 57.421875 -49.765625 C 47.410156 -52.585938 40.144531 -55.046875 35.625 -57.140625 C 31.113281 -59.234375 26.832031 -61.976562 22.78125 -65.375 C 14.664062 -72.1875 10.609375 -82.726562 10.609375 -97 C 10.609375 -108.644531 14.757812 -118.65625 23.0625 -127.03125 C 31.375 -135.40625 42.734375 -139.59375 57.140625 -139.59375 C 64.078125 -139.59375 71.304688 -138.578125 78.828125 -136.546875 C 86.359375 -134.523438 91.039062 -133.515625 92.875 -133.515625 C 94.707031 -133.515625 96.34375 -134.820312 97.78125 -137.4375 L 99.9375 -137.4375 L 101.3125 -97.78125 L 98.171875 -97.78125 C 91.890625 -109.164062 85.3125 -118.296875 78.4375 -125.171875 C 71.5625 -132.046875 64.097656 -135.484375 56.046875 -135.484375 C 48.003906 -135.484375 41.753906 -133.613281 37.296875 -129.875 C 32.847656 -126.144531 30.625 -121.171875 30.625 -114.953125 C 30.625 -108.742188 33.273438 -103.96875 38.578125 -100.625 C 43.878906 -97.289062 50.390625 -94.578125 58.109375 -92.484375 C 65.835938 -90.390625 70.910156 -88.945312 73.328125 -88.15625 C 75.753906 -87.375 78.765625 -86.296875 82.359375 -84.921875 C 85.960938 -83.546875 88.910156 -82.101562 91.203125 -80.59375 C 93.492188 -79.09375 95.914062 -77.195312 98.46875 -74.90625 C 101.019531 -72.613281 103.015625 -70.09375 104.453125 -67.34375 C 107.984375 -61.0625 109.75 -53.601562 109.75 -44.96875 C 109.75 -30.820312 105.332031 -19.460938 96.5 -10.890625 C 87.664062 -2.316406 76.050781 1.96875 61.65625 1.96875 C 54.1875 1.96875 45.640625 0.988281 36.015625 -0.96875 C 26.398438 -2.9375 21.070312 -3.921875 20.03125 -3.921875 C 18.195312 -3.921875 16.425781 -1.957031 14.71875 1.96875 L 11.984375 1.96875 L 10.015625 -44.765625 L 13.34375 -44.765625 C 19.101562 -33.378906 26.46875 -23.429688 35.4375 -14.921875 C 44.40625 -6.410156 53.863281 -2.15625 63.8125 -2.15625 Z M 63.8125 -2.15625 "/></g></g></g><g fill="#000000" fill-opacity="1"><g transform="translate(92.214842, 247.123929)"><g><path d="M 4.125 -137.4375 L 106.21875 -137.4375 L 108.1875 -98.5625 L 104.65625 -98.5625 C 99.15625 -111.78125 93.394531 -120.84375 87.375 -125.75 C 81.351562 -130.664062 72.515625 -133.125 60.859375 -133.125 L 54 -133.125 L 54 -72.453125 L 60.671875 -72.453125 C 66.816406 -72.453125 71.984375 -74.773438 76.171875 -79.421875 C 80.367188 -84.066406 83.316406 -90.316406 85.015625 -98.171875 L 87.96875 -98.171875 L 87.96875 -40.046875 L 84.625 -40.046875 C 82.269531 -49.867188 79.09375 -56.875 75.09375 -61.0625 C 71.101562 -65.25 65.640625 -67.34375 58.703125 -67.34375 L 54 -67.34375 L 54 -4.3125 L 61.453125 -4.3125 C 73.492188 -4.3125 83.734375 -7.910156 92.171875 -15.109375 C 100.617188 -22.316406 106.414062 -31.546875 109.5625 -42.796875 L 113.484375 -42.796875 L 111.921875 0 L 4.125 0 L 4.125 -4.3125 L 15.703125 -4.3125 L 15.703125 -133.125 L 4.125 -133.125 Z M 4.125 -137.4375 "/></g></g></g></svg>