<svg xmlns="http://www.w3.org/2000/svg" xmlns:xlink="http://www.w3.org/1999/xlink" width="500" zoomAndPan="magnify" viewBox="0 0 375 374.999991" height="500" preserveAspectRatio="xMidYMid meet" version="1.0"><defs><g/></defs><g fill="#000000" fill-opacity="1"><g transform="translate(164.850418, 294.885055)"><g><path d="M 63.8125 -2.15625 C 70.351562 -2.15625 76.144531 -3.921875 81.1875 -7.453125 C 86.226562 -10.992188 88.75 -16.328125 88.75 -23.453125 C 88.75 -30.585938 86.03125 -36.050781 80.59375 -39.84375 C 75.164062 -43.644531 67.441406 -46.953125 57.421875 -49.765625 C 47.410156 -52.585938 40.144531 -55.046875 35.625 -57.140625 C 31.113281 -59.234375 26.832031 -61.976562 22.78125 -65.375 C 14.664062 -72.1875 10.609375 -82.726562 10.609375 -97 C 10.609375 -108.644531 14.757812 -118.65625 23.0625 -127.03125 C 31.375 -135.40625 42.734375 -139.59375 57.140625 -139.59375 C 64.078125 -139.59375 71.304688 -138.578125 78.828125 -136.546875 C 86.359375 -134.523438 91.039062 -133.515625 92.875 -133.515625 C 94.707031 -133.515625 96.34375 -134.820312 97.78125 -137.4375 L 99.9375 -137.4375 L 101.3125 -97.78125 L 98.171875 -97.78125 C 91.890625 -109.164062 85.3125 -118.296875 78.4375 -125.171875 C 71.5625 -132.046875 64.097656 -135.484375 56.046875 -135.484375 C 48.003906 -135.484375 41.753906 -133.613281 37.296875 -129.875 C 32.847656 -126.144531 30.625 -121.171875 30.625 -114.953125 C 30.625 -108.742188 33.273438 -103.96875 38.578125 -100.625 C 43.878906 -97.289062 50.390625 -94.578125 58.109375 -92.484375 C 65.835938 -90.390625 70.910156 -88.945312 73.328125 -88.15625 C 75.753906 -87.375 78.765625 -86.296875 82.359375 -84.921875 C 85.960938 -83.546875 88.910156 -82.101562 91.203125 -80.59375 C 93.492188 -79.09375 95.914062 -77.195312 98.46875 -74.90625 C 101.019531 -72.613281 103.015625 -70.09375 104.453125 -67.34375 C 107.984375 -61.0625 109.75 -53.601562 109.75 -44.96875 C 109.75 -30.820312 105.332031 -19.460938 96.5 -10.890625 C 87.664062 -2.316406 76.050781 1.96875 61.65625 1.96875 C 54.1875 1.96875 45.640625 0.988281 36.015625 -0.96875 C 26.398438 -2.9375 21.070312 -3.921875 20.03125 -3.921875 C 18.195312 -3.921875 16.425781 -1.957031 14.71875 1.96875 L 11.984375 1.96875 L 10.015625 -44.765625 L 13.34375 -44.765625 C 19.101562 -33.378906 26.46875 -23.429688 35.4375 -14.921875 C 44.40625 -6.410156 53.863281 -2.15625 63.8125 -2.15625 Z M 63.8125 -2.15625 "/></g></g></g><g fill="#000000" fill-opacity="1"><g transform="translate(92.214842, 247.123925)"><g><path d="M 4.125 -137.4375 L 106.21875 -137.4375 L 108.1875 -98.5625 L 104.65625 -98.5625 C 99.15625 -111.78125 93.394531 -120.84375 87.375 -125.75 C 81.351562 -130.664062 72.515625 -133.125 60.859375 -133.125 L 54 -133.125 L 54 -72.453125 L 60.671875 -72.453125 C 66.816406 -72.453125 71.984375 -74.773438 76.171875 -79.421875 C 80.367188 -84.066406 83.316406 -90.316406 85.015625 -98.171875 L 87.96875 -98.171875 L 87.96875 -40.046875 L 84.625 -40.046875 C 82.269531 -49.867188 79.09375 -56.875 75.09375 -61.0625 C 71.101562 -65.25 65.640625 -67.34375 58.703125 -67.34375 L 54 -67.34375 L 54 -4.3125 L 61.453125 -4.3125 C 73.492188 -4.3125 83.734375 -7.910156 92.171875 -15.109375 C 100.617188 -22.316406 106.414062 -31.546875 109.5625 -42.796875 L 113.484375 -42.796875 L 111.921875 0 L 4.125 0 L 4.125 -4.3125 L 15.703125 -4.3125 L 15.703125 -133.125 L 4.125 -133.125 Z M 4.125 -137.4375 "/></g></g></g><path fill="#8627a2" d="M 57.15625 182.578125 L 93.128906 182.578125 L 93.128906 217.390625 L 57.15625 217.390625 L 57.15625 182.578125 " fill-opacity="1" fill-rule="nonzero"/><g fill="#000000" fill-opacity="1"><g transform="translate(67.405019, 206.359909)"><g><path d="M 13.667969 -15.941406 L 1.84375 -10.03125 L 1.84375 -6.527344 L 13.667969 -0.5625 L 13.667969 -3.796875 L 4.839844 -8.265625 L 13.667969 -12.730469 Z M 13.667969 -15.941406 "/></g></g></g><path fill="#8627a2" d="M 294.289062 183.328125 L 335.710938 183.328125 L 335.710938 210.140625 L 294.289062 210.140625 L 294.289062 183.328125 " fill-opacity="1" fill-rule="nonzero"/><g fill="#000000" fill-opacity="1"><g transform="translate(302.160775, 201.609904)"><g><path d="M -0.328125 4.917969 L 2.480469 4.917969 L 11.925781 -13.710938 L 9.097656 -13.710938 Z M -0.328125 4.917969 "/></g></g></g><g fill="#000000" fill-opacity="1"><g transform="translate(316.334844, 201.609904)"><g><path d="M 1.414062 -12.214844 L 1.414062 -9.753906 L 8.175781 -6.332031 L 1.414062 -2.910156 L 1.414062 -0.429688 L 10.472656 -5 L 10.472656 -7.683594 Z M 1.414062 -12.214844 "/></g></g></g><path fill="#8627a2" d="M 90.925781 183.421875 L 299.046875 183.421875 C 302.820312 183.421875 305.875 186.480469 305.875 190.253906 L 305.875 203.914062 C 305.875 207.6875 302.820312 210.746094 299.046875 210.746094 L 90.925781 210.746094 C 89.113281 210.746094 87.375 210.023438 86.097656 208.742188 C 84.816406 207.460938 84.09375 205.726562 84.09375 203.914062 L 84.09375 190.253906 C 84.09375 186.480469 87.152344 183.421875 90.925781 183.421875 " fill-opacity="1" fill-rule="nonzero"/><g fill="#000000" fill-opacity="1"><g transform="translate(91.68014, 203.236035)"><g><path d="M 0.328125 -11.078125 L 8.5625 -11.078125 L 8.71875 -7.953125 L 8.4375 -7.953125 C 7.988281 -9.015625 7.519531 -9.742188 7.03125 -10.140625 C 6.550781 -10.535156 5.84375 -10.734375 4.90625 -10.734375 L 4.359375 -10.734375 L 4.359375 -5.84375 L 4.890625 -5.84375 C 5.390625 -5.84375 5.804688 -6.03125 6.140625 -6.40625 C 6.472656 -6.78125 6.710938 -7.285156 6.859375 -7.921875 L 7.09375 -7.921875 L 7.09375 -3.234375 L 6.828125 -3.234375 C 6.628906 -4.023438 6.367188 -4.585938 6.046875 -4.921875 C 5.734375 -5.253906 5.296875 -5.421875 4.734375 -5.421875 L 4.359375 -5.421875 L 4.359375 -0.34375 L 4.953125 -0.34375 C 5.921875 -0.34375 6.742188 -0.632812 7.421875 -1.21875 C 8.109375 -1.800781 8.578125 -2.546875 8.828125 -3.453125 L 9.15625 -3.453125 L 9.015625 0 L 0.328125 0 L 0.328125 -0.34375 L 1.265625 -0.34375 L 1.265625 -10.734375 L 0.328125 -10.734375 Z M 0.328125 -11.078125 "/></g></g></g><g fill="#000000" fill-opacity="1"><g transform="translate(104.037823, 203.236035)"><g><path d="M 0.328125 -11.078125 L 6.03125 -11.078125 L 6.03125 -10.734375 L 4.359375 -10.734375 L 4.359375 -0.34375 L 4.921875 -0.34375 C 5.816406 -0.34375 6.53125 -0.617188 7.0625 -1.171875 C 7.59375 -1.722656 8.132812 -2.566406 8.6875 -3.703125 L 9.015625 -3.703125 L 8.71875 0 L 0.328125 0 L 0.328125 -0.34375 L 1.265625 -0.34375 L 1.265625 -10.734375 L 0.328125 -10.734375 Z M 0.328125 -11.078125 "/></g></g></g><g fill="#000000" fill-opacity="1"><g transform="translate(115.952501, 203.236035)"><g><path d="M 0.390625 -11.078125 L 5.21875 -11.078125 L 5.21875 -10.78125 L 4.359375 -10.78125 L 4.359375 -0.296875 L 5.21875 -0.296875 L 5.21875 0 L 0.390625 0 L 0.390625 -0.296875 L 1.265625 -0.296875 L 1.265625 -10.78125 L 0.390625 -10.78125 Z M 0.390625 -11.078125 "/></g></g></g><g fill="#000000" fill-opacity="1"><g transform="translate(124.054153, 203.236035)"><g><path d="M 5.140625 -0.171875 C 5.671875 -0.171875 6.140625 -0.3125 6.546875 -0.59375 C 6.953125 -0.882812 7.15625 -1.316406 7.15625 -1.890625 C 7.15625 -2.460938 6.9375 -2.898438 6.5 -3.203125 C 6.0625 -3.515625 5.4375 -3.785156 4.625 -4.015625 C 3.820312 -4.242188 3.238281 -4.441406 2.875 -4.609375 C 2.507812 -4.773438 2.164062 -4.992188 1.84375 -5.265625 C 1.1875 -5.816406 0.859375 -6.664062 0.859375 -7.8125 C 0.859375 -8.757812 1.191406 -9.566406 1.859375 -10.234375 C 2.523438 -10.910156 3.441406 -11.25 4.609375 -11.25 C 5.160156 -11.25 5.738281 -11.164062 6.34375 -11 C 6.957031 -10.84375 7.335938 -10.765625 7.484375 -10.765625 C 7.628906 -10.765625 7.757812 -10.867188 7.875 -11.078125 L 8.0625 -11.078125 L 8.171875 -7.875 L 7.921875 -7.875 C 7.410156 -8.800781 6.878906 -9.539062 6.328125 -10.09375 C 5.773438 -10.644531 5.171875 -10.921875 4.515625 -10.921875 C 3.867188 -10.921875 3.363281 -10.769531 3 -10.46875 C 2.644531 -10.164062 2.46875 -9.765625 2.46875 -9.265625 C 2.46875 -8.765625 2.679688 -8.378906 3.109375 -8.109375 C 3.535156 -7.835938 4.0625 -7.617188 4.6875 -7.453125 C 5.3125 -7.285156 5.71875 -7.171875 5.90625 -7.109375 C 6.101562 -7.046875 6.347656 -6.957031 6.640625 -6.84375 C 6.929688 -6.726562 7.164062 -6.609375 7.34375 -6.484375 C 7.53125 -6.367188 7.726562 -6.21875 7.9375 -6.03125 C 8.144531 -5.851562 8.304688 -5.648438 8.421875 -5.421875 C 8.703125 -4.921875 8.84375 -4.320312 8.84375 -3.625 C 8.84375 -2.488281 8.488281 -1.570312 7.78125 -0.875 C 7.070312 -0.1875 6.132812 0.15625 4.96875 0.15625 C 4.363281 0.15625 3.671875 0.078125 2.890625 -0.078125 C 2.117188 -0.234375 1.691406 -0.3125 1.609375 -0.3125 C 1.460938 -0.3125 1.320312 -0.15625 1.1875 0.15625 L 0.96875 0.15625 L 0.8125 -3.609375 L 1.078125 -3.609375 C 1.535156 -2.691406 2.125 -1.890625 2.84375 -1.203125 C 3.570312 -0.515625 4.335938 -0.171875 5.140625 -0.171875 Z M 5.140625 -0.171875 "/></g></g></g><g fill="#000000" fill-opacity="1"><g transform="translate(136.032113, 203.236035)"><g><path d="M 6.84375 -0.296875 L 5.6875 -3.71875 L 2.546875 -3.71875 L 1.328125 -0.296875 L 2.515625 -0.296875 L 2.515625 0 L 0.09375 0 L 0.09375 -0.296875 L 0.84375 -0.296875 L 4.875 -11.171875 L 6.171875 -11.171875 L 10.15625 -0.296875 L 10.890625 -0.296875 L 10.890625 0 L 5.71875 0 L 5.71875 -0.296875 Z M 4.171875 -8.21875 L 2.6875 -4.0625 L 5.5625 -4.0625 Z M 3.125 -11.765625 L 4.796875 -14.109375 C 5.085938 -14.273438 5.378906 -14.359375 5.671875 -14.359375 C 6.160156 -14.359375 6.53125 -14.144531 6.78125 -13.71875 L 7.953125 -11.765625 L 7.796875 -11.609375 L 5.5625 -12.671875 L 3.25 -11.609375 Z M 3.125 -11.765625 "/></g></g></g><g fill="#000000" fill-opacity="1"><g transform="translate(149.497304, 203.236035)"><g><path d="M 9.34375 -10.78125 L 9.34375 0 L 7.125 0 L 1.6875 -10.234375 L 1.6875 -0.296875 L 2.5625 -0.296875 L 2.5625 0 L 0.390625 0 L 0.390625 -0.296875 L 1.265625 -0.296875 L 1.265625 -10.78125 L 0.390625 -10.78125 L 0.390625 -11.078125 L 4.765625 -11.078125 L 8.90625 -3.140625 L 8.90625 -10.78125 L 8.046875 -10.78125 L 8.046875 -11.078125 L 10.203125 -11.078125 L 10.203125 -10.78125 Z M 9.34375 -10.78125 "/></g></g></g><g fill="#000000" fill-opacity="1"><g transform="translate(162.582775, 203.236035)"><g><path d="M 6.171875 -0.15625 C 6.691406 -0.15625 7.019531 -0.25 7.15625 -0.4375 C 7.300781 -0.632812 7.375 -0.957031 7.375 -1.40625 L 7.375 -4.484375 L 6.359375 -4.484375 L 6.359375 -4.828125 L 10.921875 -4.828125 L 10.921875 -4.484375 L 10.296875 -4.484375 L 10.296875 -0.015625 L 10.0625 -0.015625 C 9.875 -0.273438 9.609375 -0.40625 9.265625 -0.40625 C 9.109375 -0.40625 8.664062 -0.3125 7.9375 -0.125 C 7.207031 0.0625 6.582031 0.15625 6.0625 0.15625 C 4.34375 0.15625 3.007812 -0.304688 2.0625 -1.234375 C 1.125 -2.160156 0.65625 -3.554688 0.65625 -5.421875 C 0.65625 -7.285156 1.144531 -8.722656 2.125 -9.734375 C 3.113281 -10.742188 4.441406 -11.25 6.109375 -11.25 C 6.753906 -11.25 7.398438 -11.164062 8.046875 -11 C 8.691406 -10.84375 9.066406 -10.765625 9.171875 -10.765625 C 9.285156 -10.765625 9.367188 -10.785156 9.421875 -10.828125 C 9.472656 -10.878906 9.53125 -10.960938 9.59375 -11.078125 L 9.765625 -11.078125 L 9.890625 -7.640625 L 9.609375 -7.640625 C 9.085938 -8.671875 8.566406 -9.476562 8.046875 -10.0625 C 7.523438 -10.644531 6.941406 -10.9375 6.296875 -10.9375 C 4.679688 -10.9375 3.875 -9.359375 3.875 -6.203125 L 3.875 -4.953125 C 3.875 -3.367188 4.070312 -2.171875 4.46875 -1.359375 C 4.863281 -0.554688 5.429688 -0.15625 6.171875 -0.15625 Z M 6.171875 -0.15625 "/></g></g></g><g fill="#000000" fill-opacity="1"><g transform="translate(176.506798, 203.236035)"><g><path d="M 0.328125 -11.078125 L 8.5625 -11.078125 L 8.71875 -7.953125 L 8.4375 -7.953125 C 7.988281 -9.015625 7.519531 -9.742188 7.03125 -10.140625 C 6.550781 -10.535156 5.84375 -10.734375 4.90625 -10.734375 L 4.359375 -10.734375 L 4.359375 -5.84375 L 4.890625 -5.84375 C 5.390625 -5.84375 5.804688 -6.03125 6.140625 -6.40625 C 6.472656 -6.78125 6.710938 -7.285156 6.859375 -7.921875 L 7.09375 -7.921875 L 7.09375 -3.234375 L 6.828125 -3.234375 C 6.628906 -4.023438 6.367188 -4.585938 6.046875 -4.921875 C 5.734375 -5.253906 5.296875 -5.421875 4.734375 -5.421875 L 4.359375 -5.421875 L 4.359375 -0.34375 L 4.953125 -0.34375 C 5.921875 -0.34375 6.742188 -0.632812 7.421875 -1.21875 C 8.109375 -1.800781 8.578125 -2.546875 8.828125 -3.453125 L 9.15625 -3.453125 L 9.015625 0 L 0.328125 0 L 0.328125 -0.34375 L 1.265625 -0.34375 L 1.265625 -10.734375 L 0.328125 -10.734375 Z M 0.328125 -11.078125 "/></g></g></g><g fill="#000000" fill-opacity="1"><g transform="translate(188.864485, 203.236035)"><g><path d="M 0.328125 -11.078125 L 6.03125 -11.078125 L 6.03125 -10.734375 L 4.359375 -10.734375 L 4.359375 -0.34375 L 4.921875 -0.34375 C 5.816406 -0.34375 6.53125 -0.617188 7.0625 -1.171875 C 7.59375 -1.722656 8.132812 -2.566406 8.6875 -3.703125 L 9.015625 -3.703125 L 8.71875 0 L 0.328125 0 L 0.328125 -0.34375 L 1.265625 -0.34375 L 1.265625 -10.734375 L 0.328125 -10.734375 Z M 0.328125 -11.078125 "/></g></g></g><g fill="#000000" fill-opacity="1"><g transform="translate(200.779162, 203.236035)"><g><path d="M 6.84375 -0.296875 L 5.6875 -3.71875 L 2.546875 -3.71875 L 1.328125 -0.296875 L 2.515625 -0.296875 L 2.515625 0 L 0.09375 0 L 0.09375 -0.296875 L 0.84375 -0.296875 L 4.875 -11.171875 L 6.171875 -11.171875 L 10.15625 -0.296875 L 10.890625 -0.296875 L 10.890625 0 L 5.71875 0 L 5.71875 -0.296875 Z M 4.171875 -8.21875 L 2.6875 -4.0625 L 5.5625 -4.0625 Z M 4.171875 -8.21875 "/></g></g></g><g fill="#000000" fill-opacity="1"><g transform="translate(214.244353, 203.236035)"><g/></g></g><g fill="#000000" fill-opacity="1"><g transform="translate(219.577215, 203.236035)"><g><path d="M 5.140625 -0.171875 C 5.671875 -0.171875 6.140625 -0.3125 6.546875 -0.59375 C 6.953125 -0.882812 7.15625 -1.316406 7.15625 -1.890625 C 7.15625 -2.460938 6.9375 -2.898438 6.5 -3.203125 C 6.0625 -3.515625 5.4375 -3.785156 4.625 -4.015625 C 3.820312 -4.242188 3.238281 -4.441406 2.875 -4.609375 C 2.507812 -4.773438 2.164062 -4.992188 1.84375 -5.265625 C 1.1875 -5.816406 0.859375 -6.664062 0.859375 -7.8125 C 0.859375 -8.757812 1.191406 -9.566406 1.859375 -10.234375 C 2.523438 -10.910156 3.441406 -11.25 4.609375 -11.25 C 5.160156 -11.25 5.738281 -11.164062 6.34375 -11 C 6.957031 -10.84375 7.335938 -10.765625 7.484375 -10.765625 C 7.628906 -10.765625 7.757812 -10.867188 7.875 -11.078125 L 8.0625 -11.078125 L 8.171875 -7.875 L 7.921875 -7.875 C 7.410156 -8.800781 6.878906 -9.539062 6.328125 -10.09375 C 5.773438 -10.644531 5.171875 -10.921875 4.515625 -10.921875 C 3.867188 -10.921875 3.363281 -10.769531 3 -10.46875 C 2.644531 -10.164062 2.46875 -9.765625 2.46875 -9.265625 C 2.46875 -8.765625 2.679688 -8.378906 3.109375 -8.109375 C 3.535156 -7.835938 4.0625 -7.617188 4.6875 -7.453125 C 5.3125 -7.285156 5.71875 -7.171875 5.90625 -7.109375 C 6.101562 -7.046875 6.347656 -6.957031 6.640625 -6.84375 C 6.929688 -6.726562 7.164062 -6.609375 7.34375 -6.484375 C 7.53125 -6.367188 7.726562 -6.21875 7.9375 -6.03125 C 8.144531 -5.851562 8.304688 -5.648438 8.421875 -5.421875 C 8.703125 -4.921875 8.84375 -4.320312 8.84375 -3.625 C 8.84375 -2.488281 8.488281 -1.570312 7.78125 -0.875 C 7.070312 -0.1875 6.132812 0.15625 4.96875 0.15625 C 4.363281 0.15625 3.671875 0.078125 2.890625 -0.078125 C 2.117188 -0.234375 1.691406 -0.3125 1.609375 -0.3125 C 1.460938 -0.3125 1.320312 -0.15625 1.1875 0.15625 L 0.96875 0.15625 L 0.8125 -3.609375 L 1.078125 -3.609375 C 1.535156 -2.691406 2.125 -1.890625 2.84375 -1.203125 C 3.570312 -0.515625 4.335938 -0.171875 5.140625 -0.171875 Z M 5.140625 -0.171875 "/></g></g></g><g fill="#000000" fill-opacity="1"><g transform="translate(231.555174, 203.236035)"><g><path d="M 0.328125 -11.078125 L 8.5625 -11.078125 L 8.71875 -7.953125 L 8.4375 -7.953125 C 7.988281 -9.015625 7.519531 -9.742188 7.03125 -10.140625 C 6.550781 -10.535156 5.84375 -10.734375 4.90625 -10.734375 L 4.359375 -10.734375 L 4.359375 -5.84375 L 4.890625 -5.84375 C 5.390625 -5.84375 5.804688 -6.03125 6.140625 -6.40625 C 6.472656 -6.78125 6.710938 -7.285156 6.859375 -7.921875 L 7.09375 -7.921875 L 7.09375 -3.234375 L 6.828125 -3.234375 C 6.628906 -4.023438 6.367188 -4.585938 6.046875 -4.921875 C 5.734375 -5.253906 5.296875 -5.421875 4.734375 -5.421875 L 4.359375 -5.421875 L 4.359375 -0.34375 L 4.953125 -0.34375 C 5.921875 -0.34375 6.742188 -0.632812 7.421875 -1.21875 C 8.109375 -1.800781 8.578125 -2.546875 8.828125 -3.453125 L 9.15625 -3.453125 L 9.015625 0 L 0.328125 0 L 0.328125 -0.34375 L 1.265625 -0.34375 L 1.265625 -10.734375 L 0.328125 -10.734375 Z M 0.328125 -11.078125 "/></g></g></g><g fill="#000000" fill-opacity="1"><g transform="translate(243.912855, 203.236035)"><g><path d="M 8.671875 -11.078125 L 12.90625 -11.078125 L 12.90625 -10.78125 L 12.03125 -10.78125 L 12.03125 -0.296875 L 12.90625 -0.296875 L 12.90625 0 L 8.078125 0 L 8.078125 -0.296875 L 8.9375 -0.296875 L 8.9375 -10.1875 L 8.875 -10.1875 L 6.5 0 L 4.53125 0 L 1.734375 -10.234375 L 1.671875 -10.234375 L 1.671875 -0.296875 L 2.546875 -0.296875 L 2.546875 0 L 0.390625 0 L 0.390625 -0.296875 L 1.265625 -0.296875 L 1.265625 -10.78125 L 0.390625 -10.78125 L 0.390625 -11.078125 L 4.671875 -11.078125 L 6.78125 -2.921875 Z M 8.671875 -11.078125 "/></g></g></g><g fill="#000000" fill-opacity="1"><g transform="translate(259.688016, 203.236035)"><g><path d="M 0.328125 -11.078125 L 8.5625 -11.078125 L 8.71875 -7.953125 L 8.4375 -7.953125 C 7.988281 -9.015625 7.519531 -9.742188 7.03125 -10.140625 C 6.550781 -10.535156 5.84375 -10.734375 4.90625 -10.734375 L 4.359375 -10.734375 L 4.359375 -5.84375 L 4.890625 -5.84375 C 5.390625 -5.84375 5.804688 -6.03125 6.140625 -6.40625 C 6.472656 -6.78125 6.710938 -7.285156 6.859375 -7.921875 L 7.09375 -7.921875 L 7.09375 -3.234375 L 6.828125 -3.234375 C 6.628906 -4.023438 6.367188 -4.585938 6.046875 -4.921875 C 5.734375 -5.253906 5.296875 -5.421875 4.734375 -5.421875 L 4.359375 -5.421875 L 4.359375 -0.34375 L 4.953125 -0.34375 C 5.921875 -0.34375 6.742188 -0.632812 7.421875 -1.21875 C 8.109375 -1.800781 8.578125 -2.546875 8.828125 -3.453125 L 9.15625 -3.453125 L 9.015625 0 L 0.328125 0 L 0.328125 -0.34375 L 1.265625 -0.34375 L 1.265625 -10.734375 L 0.328125 -10.734375 Z M 0.328125 -11.078125 "/></g></g></g><g fill="#000000" fill-opacity="1"><g transform="translate(272.045697, 203.236035)"><g><path d="M 11.296875 -5.734375 C 11.296875 -3.554688 10.6875 -2.039062 9.46875 -1.1875 C 8.332031 -0.394531 6.78125 0 4.8125 0 L 0.328125 0 L 0.328125 -0.296875 L 1.375 -0.296875 L 1.375 -10.78125 L 0.328125 -10.78125 L 0.328125 -11.078125 L 5.21875 -11.078125 C 7.25 -11.078125 8.769531 -10.660156 9.78125 -9.828125 C 10.789062 -9.003906 11.296875 -7.640625 11.296875 -5.734375 Z M 4.46875 -0.296875 L 5.0625 -0.296875 C 6.125 -0.296875 6.882812 -0.671875 7.34375 -1.421875 C 7.8125 -2.179688 8.046875 -3.445312 8.046875 -5.21875 L 8.046875 -6.140625 C 8.046875 -8.515625 7.585938 -9.945312 6.671875 -10.4375 C 6.242188 -10.664062 5.632812 -10.78125 4.84375 -10.78125 L 4.46875 -10.78125 Z M 4.46875 -0.296875 "/></g></g></g><g fill="#000000" fill-opacity="1"><g transform="translate(286.476018, 203.236035)"><g><path d="M 7.9375 -4.890625 L 7.9375 -6.0625 C 7.9375 -7.988281 7.835938 -9.207031 7.640625 -9.71875 C 7.429688 -10.300781 7.132812 -10.660156 6.75 -10.796875 C 6.519531 -10.878906 6.242188 -10.921875 5.921875 -10.921875 C 5.609375 -10.921875 5.335938 -10.878906 5.109375 -10.796875 C 4.890625 -10.710938 4.707031 -10.5625 4.5625 -10.34375 C 4.414062 -10.132812 4.296875 -9.914062 4.203125 -9.6875 C 4.109375 -9.457031 4.035156 -9.128906 3.984375 -8.703125 C 3.921875 -8.085938 3.890625 -7.1875 3.890625 -6 L 3.890625 -4.859375 C 3.890625 -3.566406 3.9375 -2.648438 4.03125 -2.109375 C 4.132812 -1.566406 4.265625 -1.179688 4.421875 -0.953125 C 4.742188 -0.429688 5.25 -0.171875 5.9375 -0.171875 C 6.769531 -0.171875 7.3125 -0.519531 7.5625 -1.21875 C 7.8125 -1.925781 7.9375 -3.148438 7.9375 -4.890625 Z M 5.90625 0.15625 C 4.144531 0.15625 2.828125 -0.316406 1.953125 -1.265625 C 1.085938 -2.222656 0.65625 -3.609375 0.65625 -5.421875 C 0.65625 -7.234375 1.117188 -8.65625 2.046875 -9.6875 C 2.984375 -10.726562 4.304688 -11.25 6.015625 -11.25 C 7.722656 -11.25 9.007812 -10.753906 9.875 -9.765625 C 10.75 -8.785156 11.1875 -7.382812 11.1875 -5.5625 C 11.1875 -3.75 10.742188 -2.34375 9.859375 -1.34375 C 8.984375 -0.34375 7.664062 0.15625 5.90625 0.15625 Z M 5.90625 0.15625 "/></g></g></g></svg>